<?xml version="1.0" encoding="UTF-8"?>
<!DOCTYPE svg
PUBLIC "-//W3C//DTD SVG 1.1//EN"
       "http://www.w3.org/Graphics/SVG/1.1/DTD/svg11.dtd">
<svg viewBox="380 153 1311 560" width="931px" height="407px" xmlns="http://www.w3.org/2000/svg" version="1.1">
   <line x1="959" y1="296" x2="969" y2="296" style="stroke:#c00;stroke-width:1;"/>
   <line x1="1144" y1="296" x2="1154" y2="296" style="stroke:#c00;stroke-width:1;"/>
   <line x1="969" y1="296" x2="1144" y2="296" style="stroke:#c00;stroke-width:1;"/>
   <line x1="966.5" y1="296" x2="962.96446609407" y2="299.53553390593" style="stroke:#c00;stroke-width:2;"/>
   <line x1="966.5" y1="296" x2="962.96446609407" y2="292.46446609407" style="stroke:#c00;stroke-width:2;"/>
   <line x1="1149" y1="296" x2="1145.4644660941" y2="299.53553390593" style="stroke:#c00;stroke-width:2;"/>
   <line x1="1149" y1="296" x2="1145.4644660941" y2="292.46446609407" style="stroke:#c00;stroke-width:2;"/>
   <line x1="817" y1="316" x2="807" y2="316" style="stroke:#0b0;stroke-width:1;"/>
   <line x1="584" y1="299" x2="574" y2="299" style="stroke:#0b0;stroke-width:1;"/>
   <line x1="807" y1="316" x2="584" y2="299" style="stroke:#0b0;stroke-width:1;"/>
   <line x1="809.5" y1="316" x2="813.03553390593" y2="319.53553390593" style="stroke:#0b0;stroke-width:2;"/>
   <line x1="809.5" y1="316" x2="813.03553390593" y2="312.46446609407" style="stroke:#0b0;stroke-width:2;"/>
   <line x1="579" y1="299" x2="582.53553390593" y2="302.53553390593" style="stroke:#0b0;stroke-width:2;"/>
   <line x1="579" y1="299" x2="582.53553390593" y2="295.46446609407" style="stroke:#0b0;stroke-width:2;"/>
   <line x1="965" y1="198" x2="975" y2="198" style="stroke:#bbb;stroke-width:1;"/>
   <line x1="1144" y1="296" x2="1154" y2="296" style="stroke:#bbb;stroke-width:1;"/>
   <line x1="975" y1="198" x2="1144" y2="296" style="stroke:#bbb;stroke-width:1;"/>
   <line x1="972.5" y1="198" x2="968.96446609407" y2="201.53553390593" style="stroke:#bbb;stroke-width:2;"/>
   <line x1="972.5" y1="198" x2="968.96446609407" y2="194.46446609407" style="stroke:#bbb;stroke-width:2;"/>
   <line x1="1149" y1="296" x2="1145.4644660941" y2="299.53553390593" style="stroke:#bbb;stroke-width:2;"/>
   <line x1="1149" y1="296" x2="1145.4644660941" y2="292.46446609407" style="stroke:#bbb;stroke-width:2;"/>
   <line x1="823" y1="218" x2="813" y2="218" style="stroke:#333;stroke-width:1;"/>
   <line x1="588" y1="202" x2="578" y2="202" style="stroke:#333;stroke-width:1;"/>
   <line x1="813" y1="218" x2="588" y2="202" style="stroke:#333;stroke-width:1;"/>
   <line x1="815.5" y1="218" x2="819.03553390593" y2="221.53553390593" style="stroke:#333;stroke-width:2;"/>
   <line x1="815.5" y1="218" x2="819.03553390593" y2="214.46446609407" style="stroke:#333;stroke-width:2;"/>
   <line x1="583" y1="202" x2="586.53553390593" y2="205.53553390593" style="stroke:#333;stroke-width:2;"/>
   <line x1="583" y1="202" x2="586.53553390593" y2="198.46446609407" style="stroke:#333;stroke-width:2;"/>
   <line x1="1154" y1="376" x2="1144" y2="376" style="stroke:#0bf;stroke-width:1;"/>
   <line x1="947" y1="515" x2="937" y2="515" style="stroke:#0bf;stroke-width:1;"/>
   <line x1="1144" y1="376" x2="947" y2="515" style="stroke:#0bf;stroke-width:1;"/>
   <line x1="1146.5" y1="376" x2="1150.0355339059" y2="379.53553390593" style="stroke:#0bf;stroke-width:2;"/>
   <line x1="1146.5" y1="376" x2="1150.0355339059" y2="372.46446609407" style="stroke:#0bf;stroke-width:2;"/>
   <line x1="942" y1="515" x2="945.53553390593" y2="518.53553390593" style="stroke:#0bf;stroke-width:2;"/>
   <line x1="942" y1="515" x2="945.53553390593" y2="511.46446609407" style="stroke:#0bf;stroke-width:2;"/>
   <line x1="1154" y1="356" x2="1144" y2="356" style="stroke:#0bf;stroke-width:1;"/>
   <line x1="958" y1="395" x2="948" y2="395" style="stroke:#0bf;stroke-width:1;"/>
   <line x1="1144" y1="356" x2="958" y2="395" style="stroke:#0bf;stroke-width:1;"/>
   <line x1="1146.5" y1="356" x2="1150.0355339059" y2="359.53553390593" style="stroke:#0bf;stroke-width:2;"/>
   <line x1="1146.5" y1="356" x2="1150.0355339059" y2="352.46446609407" style="stroke:#0bf;stroke-width:2;"/>
   <line x1="953" y1="395" x2="956.53553390593" y2="398.53553390593" style="stroke:#0bf;stroke-width:2;"/>
   <line x1="953" y1="395" x2="956.53553390593" y2="391.46446609407" style="stroke:#0bf;stroke-width:2;"/>
   <line x1="806" y1="435" x2="796" y2="435" style="stroke:#bbb;stroke-width:1;"/>
   <line x1="547" y1="394" x2="537" y2="394" style="stroke:#bbb;stroke-width:1;"/>
   <line x1="796" y1="435" x2="547" y2="394" style="stroke:#bbb;stroke-width:1;"/>
   <line x1="798.5" y1="435" x2="802.03553390593" y2="438.53553390593" style="stroke:#bbb;stroke-width:2;"/>
   <line x1="798.5" y1="435" x2="802.03553390593" y2="431.46446609407" style="stroke:#bbb;stroke-width:2;"/>
   <line x1="542" y1="394" x2="545.53553390593" y2="397.53553390593" style="stroke:#bbb;stroke-width:2;"/>
   <line x1="542" y1="394" x2="545.53553390593" y2="390.46446609407" style="stroke:#bbb;stroke-width:2;"/>
   <rect width="142" height="20" x="395" y="364" style="fill:#007;stroke:black;"/>
   <text width="142" height="20" x="400" y="378" style="fill:#fff;" font-family="Arial" font-size="16px"> departements</text>
   <rect width="142" height="20" x="395" y="384" style="fill:#aea;stroke:black;"/>
   <text width="142" height="20" x="400" y="398" style="fill:black;" font-family="Arial" font-size="16px">idDepartement</text>
   <rect width="142" height="20" x="395" y="404" style="fill:none;stroke:black;"/>
   <text width="142" height="20" x="400" y="418" style="fill:black;" font-family="Arial" font-size="16px">nomDepartement</text>
   <rect width="142" height="20" x="817" y="266" style="fill:#007;stroke:black;"/>
   <text width="142" height="20" x="822" y="280" style="fill:#fff;" font-family="Arial" font-size="16px"> lienPeriodesSite</text>
   <rect width="142" height="20" x="817" y="286" style="fill:none;stroke:black;"/>
   <text width="142" height="20" x="822" y="300" style="fill:black;" font-family="Arial" font-size="16px">idSite</text>
   <rect width="142" height="20" x="817" y="306" style="fill:none;stroke:black;"/>
   <text width="142" height="20" x="822" y="320" style="fill:black;" font-family="Arial" font-size="16px">idPeriode</text>
   <rect width="142" height="20" x="823" y="168" style="fill:#007;stroke:black;"/>
   <text width="142" height="20" x="828" y="182" style="fill:#fff;" font-family="Arial" font-size="16px"> lienThemesSite</text>
   <rect width="142" height="20" x="823" y="188" style="fill:none;stroke:black;"/>
   <text width="142" height="20" x="828" y="202" style="fill:black;" font-family="Arial" font-size="16px">idSite</text>
   <rect width="142" height="20" x="823" y="208" style="fill:none;stroke:black;"/>
   <text width="142" height="20" x="828" y="222" style="fill:black;" font-family="Arial" font-size="16px">idTheme</text>
   <rect width="142" height="20" x="432" y="269" style="fill:#007;stroke:black;"/>
   <text width="142" height="20" x="437" y="283" style="fill:#fff;" font-family="Arial" font-size="16px"> periodes</text>
   <rect width="142" height="20" x="432" y="289" style="fill:#aea;stroke:black;"/>
   <text width="142" height="20" x="437" y="303" style="fill:black;" font-family="Arial" font-size="16px">idPeriode</text>
   <rect width="142" height="20" x="432" y="309" style="fill:none;stroke:black;"/>
   <text width="142" height="20" x="437" y="323" style="fill:black;" font-family="Arial" font-size="16px">nomPeriode</text>
   <rect width="142" height="20" x="1154" y="266" style="fill:#007;stroke:black;"/>
   <text width="142" height="20" x="1159" y="280" style="fill:#fff;" font-family="Arial" font-size="16px"> sites</text>
   <rect width="142" height="20" x="1154" y="286" style="fill:#aea;stroke:black;"/>
   <text width="142" height="20" x="1159" y="300" style="fill:black;" font-family="Arial" font-size="16px">idSite</text>
   <rect width="142" height="20" x="1154" y="306" style="fill:none;stroke:black;"/>
   <text width="142" height="20" x="1159" y="320" style="fill:black;" font-family="Arial" font-size="16px">nomSite</text>
   <rect width="142" height="20" x="1154" y="326" style="fill:none;stroke:black;"/>
   <text width="142" height="20" x="1159" y="340" style="fill:black;" font-family="Arial" font-size="16px">coordonnees</text>
   <rect width="142" height="20" x="1154" y="346" style="fill:none;stroke:black;"/>
   <text width="142" height="20" x="1159" y="360" style="fill:black;" font-family="Arial" font-size="16px">idVille</text>
   <rect width="142" height="20" x="1154" y="366" style="fill:none;stroke:black;"/>
   <text width="142" height="20" x="1159" y="380" style="fill:black;" font-family="Arial" font-size="16px">idTypeIntervention</text>
   <rect width="142" height="20" x="1154" y="386" style="fill:none;stroke:black;"/>
   <text width="142" height="20" x="1159" y="400" style="fill:black;" font-family="Arial" font-size="16px">dateDebut</text>
   <rect width="142" height="20" x="1154" y="406" style="fill:none;stroke:black;"/>
   <text width="142" height="20" x="1159" y="420" style="fill:black;" font-family="Arial" font-size="16px">dateFin</text>
   <rect width="142" height="20" x="436" y="172" style="fill:#007;stroke:black;"/>
   <text width="142" height="20" x="441" y="186" style="fill:#fff;" font-family="Arial" font-size="16px"> themes</text>
   <rect width="142" height="20" x="436" y="192" style="fill:#aea;stroke:black;"/>
   <text width="142" height="20" x="441" y="206" style="fill:black;" font-family="Arial" font-size="16px">idTheme</text>
   <rect width="142" height="20" x="436" y="212" style="fill:none;stroke:black;"/>
   <text width="142" height="20" x="441" y="226" style="fill:black;" font-family="Arial" font-size="16px">nomTheme</text>
   <rect width="142" height="20" x="795" y="485" style="fill:#007;stroke:black;"/>
   <text width="142" height="20" x="800" y="499" style="fill:#fff;" font-family="Arial" font-size="16px"> typesIntervention</text>
   <rect width="142" height="20" x="795" y="505" style="fill:#aea;stroke:black;"/>
   <text width="142" height="20" x="800" y="519" style="fill:black;" font-family="Arial" font-size="16px">idTypeIntervention</text>
   <rect width="142" height="20" x="795" y="525" style="fill:none;stroke:black;"/>
   <text width="142" height="20" x="800" y="539" style="fill:black;" font-family="Arial" font-size="16px">typeIntervention</text>
   <rect width="142" height="20" x="806" y="365" style="fill:#007;stroke:black;"/>
   <text width="142" height="20" x="811" y="379" style="fill:#fff;" font-family="Arial" font-size="16px"> villes</text>
   <rect width="142" height="20" x="806" y="385" style="fill:#aea;stroke:black;"/>
   <text width="142" height="20" x="811" y="399" style="fill:black;" font-family="Arial" font-size="16px">idVille</text>
   <rect width="142" height="20" x="806" y="405" style="fill:none;stroke:black;"/>
   <text width="142" height="20" x="811" y="419" style="fill:black;" font-family="Arial" font-size="16px">nomCommune</text>
   <rect width="142" height="20" x="806" y="425" style="fill:none;stroke:black;"/>
   <text width="142" height="20" x="811" y="439" style="fill:black;" font-family="Arial" font-size="16px">idDepartement</text>
</svg>
